<svg xmlns="http://www.w3.org/2000/svg" width="63.396" height="48.29" viewBox="0 0 0 0" fill="currentColor">
  <g id="email" transform="translate(564 422.29)">
    <g id="Group_1" data-name="Group 1" transform="translate(-564 -483.29)">
      <path id="Path_1" data-name="Path 1" d="M57.824,61H5.572A5.581,5.581,0,0,0,0,66.572v37.146a5.581,5.581,0,0,0,5.572,5.572H57.824a5.581,5.581,0,0,0,5.572-5.572V66.572A5.581,5.581,0,0,0,57.824,61Zm-.769,3.715L31.816,89.953,6.359,64.715ZM3.715,102.949V67.323L21.6,85.059Zm2.627,2.626,17.9-17.9,6.272,6.219a1.857,1.857,0,0,0,2.621-.006l6.116-6.116,17.8,17.8Zm53.34-2.627-17.8-17.8,17.8-17.8Z"/>
    </g>
  </g>
</svg>
